<svg width="256" height="83" viewBox="0 0 256 83" fill="none" xmlns="http://www.w3.org/2000/svg">
<path d="M36.115 18.8235C41.12 18.8235 45.177 22.8805 45.177 27.885V64H9.0615C4.0565 64 0 59.943 0 54.9385V44.826C0 39.8215 4.057 35.7645 9.0615 35.7645H18.8235V50.117C18.8238 50.8036 19.0966 51.4619 19.5821 51.9474C20.0676 52.4329 20.7259 52.7057 21.4125 52.706H26.353V32.706C26.3526 32.0195 26.0797 31.3613 25.5942 30.8759C25.1088 30.3905 24.4505 30.1178 23.764 30.1175H0.647V18.8235H36.115ZM79.058 52.706L79.0585 0H97.8825V64H61.7675C56.763 64 52.706 59.943 52.706 54.9385V27.885C52.706 22.8805 56.763 18.8235 61.7675 18.8235H71.5285V50.117C71.5288 50.8036 71.8016 51.4619 72.2871 51.9474C72.7726 52.4329 73.4309 52.7057 74.1175 52.706H79.058ZM131.764 52.706V18.8235H150.589V73.76C150.589 78.765 146.531 82.8215 141.527 82.8215H106.059V69.6475H131.764V64H114.473C109.468 64 105.411 59.943 105.411 54.9385V18.8235H124.234V50.117C124.235 50.8036 124.508 51.4619 124.993 51.9474C125.479 52.4329 126.137 52.7057 126.824 52.706H131.764ZM194.232 18.8235C199.237 18.8235 203.294 22.8805 203.294 27.885V37.9975C203.294 43.0025 199.237 47.059 194.232 47.059H184.47V32.707C184.47 32.367 184.403 32.0303 184.273 31.7162C184.143 31.402 183.952 31.1166 183.712 30.8762C183.471 30.6357 183.186 30.445 182.872 30.3149C182.558 30.1849 182.221 30.1179 181.881 30.118H176.941V50.117C176.941 50.8036 177.214 51.4619 177.7 51.9474C178.185 52.4329 178.843 52.7057 179.53 52.706H202.646V64H167.179C162.175 64 158.117 59.943 158.117 54.9385V18.8235H194.232ZM246.939 18.8235C251.944 18.8235 256 22.8805 256 27.885V64H237.176V32.7065C237.176 31.2825 236.011 30.1175 234.587 30.1175H229.647V64H210.823V18.8235H246.939Z" fill="#32AA52"/>
</svg>
