<svg width="128" height="87" viewBox="0 0 128 87" fill="none" xmlns="http://www.w3.org/2000/svg">
<path d="M6.6485 65.1995L0.086 86.621H5.25L6.4345 82.6295H12.836L13.9885 86.621H19.604L13.042 65.1995H6.6485ZM7.7315 78.3205L9.681 71.658L11.6085 78.3205H7.7315ZM31.9425 76.848C31.8668 76.7664 31.7877 76.688 31.7055 76.613C31.8668 76.5523 32.0245 76.4867 32.1785 76.416C32.7868 76.1399 33.3387 75.7534 33.806 75.276C34.2748 74.7895 34.6402 74.2131 34.88 73.5815C35.13 72.938 35.257 72.1985 35.257 71.385C35.257 70.2635 35.0545 69.2935 34.6565 68.501C34.2606 67.7073 33.6641 67.0309 32.926 66.539C32.2025 66.054 31.3225 65.7035 30.31 65.498C29.337 65.3005 28.241 65.1995 27.0535 65.1995H20.3545V86.621H25.492V78.251H25.6445C26.2065 78.251 26.675 78.3745 27.0765 78.6295C27.475 78.882 27.7805 79.2545 28.012 79.7705L31.117 86.621H37.0945L33.322 78.9795C32.865 78.0515 32.4135 77.355 31.9425 76.848ZM29.708 72.7385C29.5587 73.0225 29.3425 73.2659 29.078 73.4475C28.7875 73.6515 28.427 73.808 28.005 73.913C27.5595 74.0245 27.051 74.0805 26.493 74.0805H25.492V69.571H26.621C27.797 69.571 28.671 69.7555 29.2185 70.12C29.6955 70.4375 29.9275 70.9725 29.9275 71.7565C29.9275 72.1355 29.8555 72.457 29.708 72.7385ZM52.1465 67.7435C51.2815 66.874 50.1905 66.223 48.904 65.8095C47.65 65.405 46.174 65.1995 44.5175 65.1995H37.723V86.621H43.6375C45.546 86.621 47.2155 86.361 48.599 85.8485C50.004 85.329 51.1775 84.575 52.086 83.608C52.993 82.643 53.669 81.464 54.094 80.1045C54.511 78.7735 54.722 77.2765 54.722 75.655C54.722 73.8875 54.5105 72.337 54.0925 71.0465C53.6655 69.7245 53.011 68.6135 52.1465 67.7435ZM47.946 80.762C47.054 81.753 45.76 82.2345 43.99 82.2345H42.86V69.586H44.2615C45.252 69.586 46.0835 69.726 46.732 70.0025C47.361 70.27 47.8475 70.648 48.2195 71.157C48.5995 71.679 48.875 72.334 49.038 73.1025C49.2095 73.9155 49.297 74.8575 49.297 75.9025C49.297 78.1315 48.8425 79.7665 47.946 80.762ZM67.0975 78.827C67.0975 79.5655 67.0295 80.195 66.894 80.698C66.768 81.1675 66.5825 81.551 66.3415 81.8375C66.1135 82.1107 65.815 82.3163 65.4785 82.432C65.098 82.568 64.6115 82.6365 64.0315 82.6365C63.418 82.6365 62.912 82.558 62.5275 82.4025C62.1743 82.2642 61.8618 82.0389 61.619 81.7475C61.376 81.455 61.202 81.088 61.1015 80.655C60.9895 80.177 60.933 79.6145 60.933 78.9815V65.1995H55.796V79.2135C55.796 80.3715 55.9395 81.4345 56.2215 82.3725C56.515 83.347 56.999 84.1895 57.6605 84.875C58.322 85.5605 59.188 86.09 60.2345 86.4485C61.2515 86.799 62.4805 86.9765 63.887 86.9765C65.1445 86.9765 66.2985 86.799 67.3155 86.4485C68.3555 86.092 69.252 85.5515 69.9805 84.8415C70.7095 84.1305 71.275 83.2355 71.6615 82.1815C72.0415 81.1465 72.2345 79.9345 72.2345 78.579V65.1995H67.0975V78.827ZM74.8615 69.509H79.4715V82.281H74.8615V86.621H89.283V82.281H84.673V69.509H89.283V65.1995H74.8615V69.509ZM103.579 77.4055L97.836 65.1995H92.0215V86.621H96.806V74.183L102.58 86.621H108.365V65.1995H103.579V77.4055ZM124.996 67.734C123.496 65.8265 121.247 64.8595 118.313 64.8595C117.058 64.8595 115.862 65.082 114.756 65.5205C113.634 65.965 112.643 66.657 111.81 67.579C110.984 68.493 110.328 69.6685 109.861 71.072C109.4 72.4575 109.166 74.119 109.166 76.011C109.166 79.506 109.909 82.225 111.375 84.094C112.875 86.007 115.123 86.9765 118.057 86.9765C119.312 86.9765 120.511 86.754 121.617 86.3155C122.739 85.8705 123.729 85.178 124.562 84.2575C125.387 83.344 126.043 82.169 126.511 80.7645C126.971 79.3795 127.205 77.718 127.205 75.825C127.205 72.32 126.462 69.5975 124.996 67.734ZM121.615 78.8645C121.468 79.655 121.238 80.3215 120.933 80.846C120.643 81.3455 120.284 81.7115 119.836 81.964C119.39 82.2155 118.835 82.343 118.186 82.343C116.902 82.343 116.007 81.865 115.45 80.8825C114.838 79.803 114.527 78.102 114.527 75.825C114.527 74.756 114.604 73.7955 114.757 72.972C114.904 72.183 115.135 71.5175 115.445 70.993C115.74 70.4915 116.1 70.1245 116.546 69.871C116.985 69.6205 117.537 69.4935 118.186 69.4935C119.48 69.4935 120.377 69.9705 120.929 70.9515C121.536 72.0315 121.844 73.734 121.844 76.011C121.844 77.083 121.767 78.043 121.615 78.8645ZM119.784 2.87H120.696V5.2665H121.342V2.87H122.261V2.275H119.784V2.87ZM124.511 2.275L123.887 4.314L123.242 2.275H122.399V5.2665H123.007V3.3555L123.61 5.2665H124.165L124.737 3.405V5.2665H125.341V2.275H124.511ZM94.764 60.1635C86.62 60.1635 79.657 57.4175 73.529 51.801C69.7435 48.3325 66.6225 44.083 63.751 39.6645C60.88 44.083 57.7585 48.3325 53.9735 51.801C47.389 57.8355 39.84 60.5565 30.899 60.118C13.8485 60.044 0 46.588 0 30.059C0 13.4845 13.9245 0 31.04 0C40.406 0 48.2915 3.0995 55.145 9.475C58.437 12.5375 61.216 16.09 63.751 19.807C66.286 16.09 69.0655 12.5375 72.357 9.475C79.2105 3.0995 87.096 0 96.462 0C113.578 0 127.502 13.4845 127.502 30.059C127.502 46.588 113.654 60.044 96.603 60.118C95.9905 60.1482 95.3773 60.1634 94.764 60.1635ZM69.9865 29.658C73.3835 35.1695 76.6805 40.2995 80.6965 43.9795C85.2295 48.134 90.0075 49.843 96.184 49.5165L96.462 49.509C107.728 49.509 116.893 40.784 116.893 30.059C116.893 19.334 107.728 10.609 96.462 10.609C89.8115 10.609 84.448 12.717 79.583 17.2425C75.9495 20.623 72.9495 24.954 69.9865 29.658ZM31.04 10.609C19.7745 10.609 10.609 19.3345 10.609 30.059C10.609 40.784 19.7745 49.509 31.04 49.509L31.3185 49.5165C37.4955 49.843 42.2725 48.134 46.8055 43.9795C50.8215 40.2995 54.119 35.1695 57.5155 29.658C54.5525 24.954 51.5525 20.623 47.9195 17.2425C43.054 12.717 37.6905 10.609 31.04 10.609Z" fill="#00979C"/>
</svg>
