<svg width="154" height="23" viewBox="0 0 154 23" fill="none" xmlns="http://www.w3.org/2000/svg">
<path d="M76.4327 2.82981V21.3721L74.4605 23V7.57503H70.748L76.4327 2.82981ZM144.837 0C146.489 0 148.023 0.255182 149.438 0.765547C150.8 1.24776 151.975 1.78967 152.963 2.39126L153.135 2.4982L151.09 6.48712C150.903 6.33076 150.64 6.15191 150.3 5.95056L150.106 5.83837L149.898 5.72188L149.674 5.60076C149.045 5.25148 148.298 4.95602 147.433 4.7144C146.566 4.4455 145.665 4.30965 144.759 4.31129C142.294 4.31129 141.062 5.02321 141.062 6.44705C141.062 7.27958 141.508 7.87048 142.399 8.21977L142.602 8.29527L142.818 8.37201L143.047 8.44999L143.289 8.52888L143.543 8.60932L143.81 8.69099C143.856 8.70496 143.902 8.71873 143.948 8.73229L144.235 8.8155L144.534 8.90056L144.847 8.98624L145.171 9.07346L145.51 9.16191L146.04 9.2969L146.41 9.38843C147.957 9.79113 149.294 10.2478 150.422 10.7583C151.527 11.2473 152.38 11.8968 152.979 12.7067L153.056 12.8134C153.685 13.6461 154 14.7474 154 16.1172C154 17.7826 153.581 19.1258 152.742 20.1468C151.929 21.1406 150.854 21.8659 149.517 22.3226C148.18 22.7522 146.738 22.967 145.191 22.967C143.409 22.967 141.639 22.7118 139.883 22.2015C138.21 21.7156 136.715 21.059 135.399 20.2318L135.203 20.1064L137.326 15.8755C137.667 16.2248 138.231 16.6143 139.017 17.0439C139.83 17.4739 140.774 17.8366 141.849 18.1318C142.924 18.4277 144.064 18.5755 145.27 18.5753C147.682 18.5753 148.888 17.9171 148.888 16.6007C148.888 15.7144 148.324 15.0832 147.197 14.7072L146.926 14.6095L146.641 14.5106L146.343 14.4101L146.031 14.3078L145.706 14.2042L145.367 14.0988L145.192 14.0458L144.833 13.9383L144.46 13.8292L144.073 13.7185L143.673 13.6063L143.047 13.4353L142.832 13.3773C140.577 12.7864 138.899 12.0344 137.798 11.1211C136.724 10.1807 136.186 8.83748 136.186 7.09148C136.186 5.53368 136.566 4.23095 137.326 3.18331C138.113 2.13546 139.162 1.34299 140.472 0.80592C141.809 0.26864 143.264 0 144.837 0ZM108.369 0.0400649C110.033 0.0400649 111.552 0.350619 112.925 0.971727L113.089 1.04754C114.504 1.69228 115.71 2.56528 116.706 3.66655C117.729 4.74111 118.515 5.9634 119.065 7.33341C119.616 8.70322 119.891 10.1 119.892 11.5239C119.892 13.0011 119.603 14.4249 119.027 15.7951C118.45 17.1382 117.637 18.3469 116.588 19.4213C115.566 20.4691 114.347 21.3019 112.931 21.9195C111.516 22.5371 109.969 22.846 108.291 22.8462C106.561 22.8462 104.988 22.5373 103.572 21.9195C102.156 21.275 100.937 20.4154 99.9141 19.3408C98.8917 18.2396 98.1052 17.0039 97.5548 15.6339C97.005 14.2637 96.7288 12.8534 96.7288 11.4031C96.7288 9.92561 97.0173 8.50186 97.5942 7.13185C98.139 5.83305 98.9185 4.65146 99.8916 3.64929L100.033 3.50537C101.082 2.43101 102.313 1.58472 103.729 0.967104C105.144 0.349078 106.691 0.0400649 108.369 0.0400649ZM13.4882 0.161492L23.0441 22.6853H18.0108L15.8085 17.4066H7.275L5.07298 22.685H0L9.59492 0.161184L13.4882 0.161492ZM41.6353 0.161492L47.6919 8.13933L53.7475 0.161184H58.899L50.2082 11.5643L58.6238 22.685H53.4723L47.6913 15.0296L41.9503 22.685H36.72L45.1749 11.5643L36.4448 0.161184L41.6353 0.161492ZM80.0397 0.0579399V15.13H83.8563L78.0708 19.9945V1.46206L80.0397 0.0579399ZM108.291 4.39203C106.849 4.39203 105.617 4.74121 104.594 5.43957C103.598 6.13794 102.838 7.0244 102.313 8.09896C101.789 9.17352 101.527 10.2883 101.527 11.4434C101.527 12.6522 101.803 13.8072 102.353 14.9084C102.903 15.983 103.677 16.856 104.673 17.5274C105.695 18.1993 106.914 18.5351 108.33 18.5349C109.772 18.5349 110.991 18.1856 111.987 17.4871C112.984 16.7619 113.744 15.862 114.268 14.7873C114.793 13.6861 115.055 12.558 115.055 11.4031C115.055 10.1943 114.78 9.0527 114.23 7.97814C113.679 6.90358 112.892 6.04394 111.869 5.3992C110.873 4.72776 109.68 4.39203 108.291 4.39203ZM11.5614 6.08369L8.33675 13.1761H14.6682L11.5614 6.08369Z" fill="#5A29E4"/>
</svg>
