<svg width="128" height="26" viewBox="0 0 128 26" fill="none" xmlns="http://www.w3.org/2000/svg">
<g clip-path="url(#clip0_96_8421)">
<path d="M4.19375 17.0072C4.19375 18.4897 4.51925 19.628 4.9445 20.3165C5.502 21.2185 6.33375 21.6007 7.182 21.6007C8.2755 21.6007 9.276 21.3293 11.204 18.6625C12.7488 16.525 14.569 13.525 15.7935 11.6442L17.8673 8.45775C19.308 6.24475 20.9755 3.78475 22.8873 2.11725C24.4485 0.756 26.1322 0 27.8267 0C30.6717 0 33.3818 1.6485 35.4555 4.7405C37.7253 8.127 38.827 12.3923 38.827 16.794C38.827 19.4108 38.3112 21.3332 37.4335 22.8522C36.5855 24.3212 34.933 25.789 32.1527 25.789V21.6007C34.5332 21.6007 35.1273 19.4132 35.1273 16.91C35.1273 13.3427 34.2955 9.384 32.4632 6.55525C31.1632 4.54875 29.4783 3.32275 27.6243 3.32275C25.6193 3.32275 24.0057 4.83525 22.1922 7.5315C21.2282 8.964 20.2385 10.7098 19.1273 12.6798L17.904 14.847C15.4465 19.204 14.824 20.1965 13.5955 21.8342C11.442 24.702 9.603 25.7892 7.182 25.7892C4.31 25.7892 2.494 24.5455 1.3695 22.6715C0.45075 21.1442 0 19.1405 0 16.8575L4.19375 17.0072Z" fill="#0081FB"/>
<path d="M4.19375 17.0072C4.19375 18.4897 4.51925 19.628 4.9445 20.3165C5.502 21.2185 6.33375 21.6007 7.182 21.6007C8.2755 21.6007 9.276 21.3293 11.204 18.6625C12.7488 16.525 14.569 13.525 15.7935 11.6442L17.8673 8.45775C19.308 6.24475 20.9755 3.78475 22.8873 2.11725C24.4485 0.756 26.1322 0 27.8267 0C30.6717 0 33.3818 1.6485 35.4555 4.7405C37.7253 8.127 38.827 12.3923 38.827 16.794C38.827 19.4108 38.3112 21.3332 37.4335 22.8522C36.5855 24.3212 34.933 25.789 32.1527 25.789V21.6007C34.5332 21.6007 35.1273 19.4132 35.1273 16.91C35.1273 13.3427 34.2955 9.384 32.4632 6.55525C31.1632 4.54875 29.4783 3.32275 27.6243 3.32275C25.6193 3.32275 24.0057 4.83525 22.1922 7.5315C21.2282 8.964 20.2385 10.7098 19.1273 12.6798L17.904 14.847C15.4465 19.204 14.824 20.1965 13.5955 21.8342C11.442 24.702 9.603 25.7892 7.182 25.7892C4.31 25.7892 2.494 24.5455 1.3695 22.6715C0.45075 21.1442 0 19.1405 0 16.8575L4.19375 17.0072Z" fill="#0081FB"/>
<path d="M3.30664 5.03625C5.22914 2.0725 8.00414 0 11.1864 0C13.0294 0 14.8616 0.5455 16.7749 2.1075C18.8676 3.81575 21.0984 6.62825 23.8811 11.2635L24.8786 12.927C27.2876 16.9398 28.6581 19.0043 29.4601 19.9778C30.4916 21.228 31.2141 21.6007 32.1526 21.6007C34.5329 21.6007 35.1269 19.4132 35.1269 16.91L38.8266 16.794C38.8266 19.4108 38.3109 21.3332 37.4331 22.8522C36.5851 24.3212 34.9326 25.789 32.1524 25.789C30.4241 25.789 28.8931 25.4137 27.1999 23.8165C25.8984 22.5905 24.3766 20.4125 23.2059 18.4548L19.7239 12.638C17.9764 9.71875 16.3739 7.54225 15.4464 6.5565C14.4484 5.4965 13.1659 4.2165 11.1189 4.2165C9.46214 4.2165 8.05514 5.37925 6.87789 7.1575L3.30664 5.03625Z" fill="url(#paint0_linear_96_8421)"/>
<path d="M3.30664 5.03625C5.22914 2.0725 8.00414 0 11.1864 0C13.0294 0 14.8616 0.5455 16.7749 2.1075C18.8676 3.81575 21.0984 6.62825 23.8811 11.2635L24.8786 12.927C27.2876 16.9398 28.6581 19.0043 29.4601 19.9778C30.4916 21.228 31.2141 21.6007 32.1526 21.6007C34.5329 21.6007 35.1269 19.4132 35.1269 16.91L38.8266 16.794C38.8266 19.4108 38.3109 21.3332 37.4331 22.8522C36.5851 24.3212 34.9326 25.789 32.1524 25.789C30.4241 25.789 28.8931 25.4137 27.1999 23.8165C25.8984 22.5905 24.3766 20.4125 23.2059 18.4548L19.7239 12.638C17.9764 9.71875 16.3739 7.54225 15.4464 6.5565C14.4484 5.4965 13.1659 4.2165 11.1189 4.2165C9.46214 4.2165 8.05514 5.37925 6.87789 7.1575L3.30664 5.03625Z" fill="url(#paint1_linear_96_8421)"/>
<path d="M11.119 4.21675C9.46225 4.21675 8.05525 5.37925 6.878 7.1575C5.213 9.67 4.19375 13.413 4.19375 17.0072C4.19375 18.4897 4.51925 19.628 4.9445 20.3165L1.369 22.6715C0.451 21.1442 0 19.1405 0 16.8575C0 12.7055 1.1395 8.378 3.30675 5.03625C5.22925 2.0725 8.00425 0 11.1865 0L11.119 4.21675Z" fill="url(#paint2_linear_96_8421)"/>
<path d="M11.119 4.21675C9.46225 4.21675 8.05525 5.37925 6.878 7.1575C5.213 9.67 4.19375 13.413 4.19375 17.0072C4.19375 18.4897 4.51925 19.628 4.9445 20.3165L1.369 22.6715C0.451 21.1442 0 19.1405 0 16.8575C0 12.7055 1.1395 8.378 3.30675 5.03625C5.22925 2.0725 8.00425 0 11.1865 0L11.119 4.21675Z" fill="url(#paint3_linear_96_8421)"/>
<path d="M46.9792 0.81543H51.8305L60.079 15.7379L68.329 0.81543H73.0747V25.3354H69.1172V6.54293L61.8827 19.5564H58.17L50.937 6.54293V25.3354H46.9795L46.9792 0.81543ZM85.475 9.95793C82.637 9.95793 80.9275 12.0937 80.5185 14.7389H90.151C89.9525 12.0139 88.3807 9.95793 85.475 9.95793ZM76.595 16.2454C76.595 10.6799 80.1917 6.62918 85.544 6.62918C90.8085 6.62918 93.9515 10.6284 93.9515 16.5424V17.6294H80.5185C80.995 20.5067 82.9042 22.4457 85.9827 22.4457C88.4387 22.4457 89.974 21.6962 91.4295 20.3257L93.532 22.9007C91.551 24.7219 89.0315 25.7724 85.8422 25.7724C80.0485 25.7724 76.5947 21.5477 76.5947 16.2454M98.7502 10.3084H95.1075V7.06818H98.7505V1.70918H102.569V7.06818H108.103V10.3087H102.569V18.5224C102.569 21.3267 103.465 22.3232 105.669 22.3232C106.675 22.3232 107.251 22.2367 108.103 22.0949V25.3004C107.042 25.6002 106.029 25.7379 104.933 25.7379C100.811 25.7379 98.7505 23.4857 98.7505 18.9774L98.7502 10.3084ZM124.181 13.4599C123.414 11.5237 121.704 10.0979 119.189 10.0979C115.922 10.0979 113.831 12.4162 113.831 16.1929C113.831 19.8747 115.756 22.3052 119.033 22.3052C121.609 22.3052 123.448 20.8064 124.181 18.9417V13.4599ZM128 25.3349H124.251V22.7779C123.204 24.2834 121.297 25.7729 118.209 25.7729C113.243 25.7729 109.924 21.6154 109.924 16.1929C109.924 10.7192 113.323 6.62943 118.42 6.62943C120.939 6.62943 122.916 7.63693 124.251 9.41493V7.06818H128L128 25.3349Z" fill="#192830"/>
<path d="M46.9792 0.81543H51.8305L60.079 15.7379L68.329 0.81543H73.0747V25.3354H69.1172V6.54293L61.8827 19.5564H58.17L50.937 6.54293V25.3354H46.9795L46.9792 0.81543ZM85.475 9.95793C82.637 9.95793 80.9275 12.0937 80.5185 14.7389H90.151C89.9525 12.0139 88.3807 9.95793 85.475 9.95793ZM76.595 16.2454C76.595 10.6799 80.1917 6.62918 85.544 6.62918C90.8085 6.62918 93.9515 10.6284 93.9515 16.5424V17.6294H80.5185C80.995 20.5067 82.9042 22.4457 85.9827 22.4457C88.4387 22.4457 89.974 21.6962 91.4295 20.3257L93.532 22.9007C91.551 24.7219 89.0315 25.7724 85.8422 25.7724C80.0485 25.7724 76.5947 21.5477 76.5947 16.2454M98.7502 10.3084H95.1075V7.06818H98.7505V1.70918H102.569V7.06818H108.103V10.3087H102.569V18.5224C102.569 21.3267 103.465 22.3232 105.669 22.3232C106.675 22.3232 107.251 22.2367 108.103 22.0949V25.3004C107.042 25.6002 106.029 25.7379 104.933 25.7379C100.811 25.7379 98.7505 23.4857 98.7505 18.9774L98.7502 10.3084ZM124.181 13.4599C123.414 11.5237 121.704 10.0979 119.189 10.0979C115.922 10.0979 113.831 12.4162 113.831 16.1929C113.831 19.8747 115.756 22.3052 119.033 22.3052C121.609 22.3052 123.448 20.8064 124.181 18.9417V13.4599ZM128 25.3349H124.251V22.7779C123.204 24.2834 121.297 25.7729 118.209 25.7729C113.243 25.7729 109.924 21.6154 109.924 16.1929C109.924 10.7192 113.323 6.62943 118.42 6.62943C120.939 6.62943 122.916 7.63693 124.251 9.41493V7.06818H128L128 25.3349Z" fill="#192830"/>
</g>
<defs>
<linearGradient id="paint0_linear_96_8421" x1="496.253" y1="1442.48" x2="3166.48" y2="1577.35" gradientUnits="userSpaceOnUse">
<stop stop-color="#0064E1"/>
<stop offset="0.4" stop-color="#0064E1"/>
<stop offset="0.83" stop-color="#0073EE"/>
<stop offset="1" stop-color="#0082FB"/>
</linearGradient>
<linearGradient id="paint1_linear_96_8421" x1="496.253" y1="1442.48" x2="3166.48" y2="1577.35" gradientUnits="userSpaceOnUse">
<stop stop-color="#0064E1"/>
<stop offset="0.4" stop-color="#0064E1"/>
<stop offset="0.83" stop-color="#0073EE"/>
<stop offset="1" stop-color="#0082FB"/>
</linearGradient>
<linearGradient id="paint2_linear_96_8421" x1="607.595" y1="1876.79" x2="607.595" y2="891.149" gradientUnits="userSpaceOnUse">
<stop stop-color="#0082FB"/>
<stop offset="1" stop-color="#0064E0"/>
</linearGradient>
<linearGradient id="paint3_linear_96_8421" x1="607.595" y1="1876.79" x2="607.595" y2="891.149" gradientUnits="userSpaceOnUse">
<stop stop-color="#0082FB"/>
<stop offset="1" stop-color="#0064E0"/>
</linearGradient>
<clipPath id="clip0_96_8421">
<rect width="128" height="26" fill="white"/>
</clipPath>
</defs>
</svg>
