<svg width="264" height="63" viewBox="0 0 264 63" fill="none" xmlns="http://www.w3.org/2000/svg">
<g clip-path="url(#clip0_99_8399)" filter="url(#filter0_d_99_8399)">
<path d="M260 24.7244V20.2219H254.409V13.2229L254.221 13.2804L248.969 14.8874L248.866 14.9189V20.2219H240.578V17.2679C240.578 15.8924 240.886 14.8394 241.492 14.1379C242.094 13.4439 242.955 13.0914 244.053 13.0914C244.843 13.0914 245.66 13.2774 246.483 13.6439L246.689 13.7359V8.99492L246.592 8.95992C245.824 8.68342 244.78 8.54492 243.487 8.54492C241.856 8.54492 240.375 8.89942 239.082 9.60292C237.79 10.3064 236.772 11.3124 236.059 12.5909C235.349 13.8679 234.99 15.3424 234.99 16.9744V20.2224H231.096V24.7249H234.99V43.6914H240.578V24.7244H248.866V36.7774C248.866 41.7414 251.208 44.2574 255.826 44.2574C256.624 44.2527 257.419 44.1642 258.198 43.9934C259.028 43.8149 259.593 43.6364 259.926 43.4459L260 43.4024V38.8584L259.773 39.0089C259.469 39.2114 259.092 39.3764 258.649 39.4989C258.204 39.6239 257.832 39.6869 257.545 39.6869C256.463 39.6869 255.663 39.3954 255.166 38.8199C254.664 38.2399 254.409 37.2244 254.409 35.8044V24.7244H260ZM218.616 39.6874C216.587 39.6874 214.988 39.0144 213.861 37.6899C212.727 36.3579 212.152 34.4599 212.152 32.0474C212.152 29.5589 212.727 27.6114 213.862 26.2559C214.989 24.9099 216.573 24.2264 218.57 24.2264C220.508 24.2264 222.05 24.8789 223.155 26.1674C224.266 27.4619 224.829 29.3939 224.829 31.9114C224.829 34.4599 224.299 36.4179 223.254 37.7274C222.217 39.0274 220.656 39.6874 218.616 39.6874ZM218.865 19.6564C214.995 19.6564 211.921 20.7904 209.73 23.0269C207.539 25.2639 206.429 28.3589 206.429 32.2279C206.429 35.9024 207.513 38.8579 209.651 41.0114C211.789 43.1649 214.699 44.2564 218.298 44.2564C222.05 44.2564 225.062 43.1069 227.253 40.8394C229.443 38.5744 230.553 35.5084 230.553 31.7294C230.553 27.9979 229.512 25.0204 227.457 22.8814C225.401 20.7414 222.51 19.6564 218.865 19.6564ZM197.418 19.6564C194.785 19.6564 192.608 20.3299 190.944 21.6574C189.271 22.9929 188.422 24.7449 188.422 26.8644C188.422 27.9659 188.605 28.9444 188.966 29.7744C189.329 30.6074 189.89 31.3404 190.636 31.9559C191.376 32.5664 192.519 33.2059 194.033 33.8559C195.306 34.3799 196.255 34.8234 196.858 35.1724C197.448 35.5149 197.866 35.8589 198.102 36.1939C198.332 36.5214 198.448 36.9704 198.448 37.5239C198.448 39.1009 197.268 39.8679 194.838 39.8679C193.937 39.8679 192.909 39.6799 191.783 39.3089C190.665 38.9432 189.61 38.4081 188.654 37.7224L188.422 37.5564V42.9364L188.507 42.9764C189.298 43.3414 190.295 43.6489 191.47 43.8914C192.643 44.1334 193.708 44.2569 194.634 44.2569C197.491 44.2569 199.791 43.5804 201.469 42.2449C203.159 40.8999 204.016 39.1074 204.016 36.9139C204.016 35.3324 203.554 33.9754 202.645 32.8814C201.744 31.7964 200.178 30.7999 197.994 29.9194C196.254 29.2209 195.139 28.6414 194.679 28.1964C194.236 27.7664 194.011 27.1584 194.011 26.3889C194.011 25.7059 194.289 25.1594 194.859 24.7164C195.434 24.2714 196.234 24.0449 197.237 24.0449C198.169 24.0449 199.121 24.1919 200.069 24.4799C201.016 24.7684 201.847 25.1549 202.541 25.6269L202.769 25.7829V20.6789L202.682 20.6414C202.042 20.3664 201.197 20.1314 200.172 19.9414C199.15 19.7524 198.223 19.6564 197.418 19.6564ZM173.853 39.6874C171.825 39.6874 170.225 39.0144 169.098 37.6899C167.964 36.3579 167.391 34.4599 167.391 32.0474C167.391 29.5589 167.965 27.6114 169.1 26.2559C170.226 24.9099 171.81 24.2264 173.808 24.2264C175.745 24.2264 177.288 24.8789 178.393 26.1674C179.503 27.4619 180.067 29.3939 180.067 31.9114C180.067 34.4599 179.537 36.4179 178.492 37.7274C177.454 39.0274 175.894 39.6874 173.853 39.6874ZM174.102 19.6564C170.231 19.6564 167.157 20.7904 164.967 23.0269C162.777 25.2639 161.666 28.3589 161.666 32.2279C161.666 35.9039 162.751 38.8579 164.888 41.0114C167.026 43.1649 169.936 44.2564 173.536 44.2564C177.286 44.2564 180.3 43.1069 182.491 40.8394C184.681 38.5744 185.791 35.5084 185.791 31.7294C185.791 27.9979 184.749 25.0204 182.694 22.8814C180.638 20.7414 177.747 19.6564 174.102 19.6564ZM153.182 24.2864V20.2219H147.662V43.6904H153.182V31.6849C153.182 29.6434 153.645 27.9664 154.558 26.6999C155.46 25.4484 156.662 24.8139 158.128 24.8139C158.626 24.8139 159.184 24.8959 159.788 25.0584C160.387 25.2194 160.82 25.3944 161.076 25.5784L161.308 25.7469V20.1819L161.218 20.1434C160.704 19.9249 159.977 19.8149 159.057 19.8149C157.669 19.8149 156.428 20.2604 155.365 21.1379C154.431 21.9094 153.756 22.9674 153.241 24.2864H153.182ZM137.776 19.6564C135.243 19.6564 132.984 20.1999 131.062 21.2704C129.137 22.3429 127.648 23.8754 126.635 25.8229C125.626 27.7664 125.114 30.0364 125.114 32.5679C125.114 34.7849 125.611 36.8199 126.592 38.6129C127.574 40.4094 128.964 41.8149 130.723 42.7899C132.48 43.7634 134.51 44.2569 136.758 44.2569C139.381 44.2569 141.621 43.7324 143.418 42.6984L143.49 42.6564V37.5989L143.258 37.7684C142.432 38.3671 141.522 38.8408 140.557 39.1744C139.581 39.5149 138.692 39.6869 137.912 39.6869C135.746 39.6869 134.007 39.0094 132.745 37.6734C131.48 36.3349 130.838 34.4564 130.838 32.0919C130.838 29.7129 131.507 27.7859 132.825 26.3634C134.14 24.9459 135.882 24.2269 138.003 24.2269C139.818 24.2269 141.586 24.8414 143.258 26.0549L143.49 26.2229V20.8939L143.415 20.8519C142.785 20.4994 141.927 20.2084 140.861 19.9879C139.8 19.7679 138.762 19.6564 137.776 19.6564ZM121.312 20.2219H115.791V43.6904H121.312V20.2219ZM118.608 10.2244C117.7 10.2244 116.907 10.5339 116.256 11.1464C115.602 11.7614 115.27 12.5354 115.27 13.4484C115.27 14.3474 115.598 15.1069 116.245 15.7054C116.889 16.3019 117.684 16.6044 118.608 16.6044C119.532 16.6044 120.33 16.3019 120.981 15.7064C121.636 15.1069 121.969 14.3474 121.969 13.4484C121.969 12.5674 121.645 11.8009 121.008 11.1714C120.372 10.5429 119.564 10.2244 118.608 10.2244ZM104.834 18.4909V43.6899H110.468V10.9429H102.671L92.7595 35.2664L83.1415 10.9429H75.0265V43.6904H80.321V18.4884H80.503L90.6595 43.6904H94.6545L104.652 18.4904L104.834 18.4909Z" fill="#706D6E"/>
<path d="M29.9695 25.9695H4V0H29.9695V25.9695Z" fill="#F1511B"/>
<path d="M58.6435 25.9695H32.674V0H58.6435V25.9695Z" fill="#80CC28"/>
<path d="M29.969 54.6531H4V28.6836H29.969V54.6531Z" fill="#00ADEF"/>
<path d="M58.6435 54.6531H32.674V28.6836H58.6435V54.6531Z" fill="#FBBC09"/>
</g>
<defs>
<filter id="filter0_d_99_8399" x="0" y="0" width="264" height="63" filterUnits="userSpaceOnUse" color-interpolation-filters="sRGB">
<feFlood flood-opacity="0" result="BackgroundImageFix"/>
<feColorMatrix in="SourceAlpha" type="matrix" values="0 0 0 0 0 0 0 0 0 0 0 0 0 0 0 0 0 0 127 0" result="hardAlpha"/>
<feOffset dy="4"/>
<feGaussianBlur stdDeviation="2"/>
<feComposite in2="hardAlpha" operator="out"/>
<feColorMatrix type="matrix" values="0 0 0 0 0 0 0 0 0 0 0 0 0 0 0 0 0 0 0.25 0"/>
<feBlend mode="normal" in2="BackgroundImageFix" result="effect1_dropShadow_99_8399"/>
<feBlend mode="normal" in="SourceGraphic" in2="effect1_dropShadow_99_8399" result="shape"/>
</filter>
<clipPath id="clip0_99_8399">
<rect width="256" height="55" fill="white" transform="translate(4)"/>
</clipPath>
</defs>
</svg>
