<svg width="256" height="69" viewBox="0 0 256 69" fill="none" xmlns="http://www.w3.org/2000/svg">
<path d="M170.329 0V50.1015C176.509 50.3885 182.672 50.7368 188.818 51.1465V61.769C179.07 61.1189 169.312 60.6257 159.548 60.2895V0H170.329ZM256 0.006L241.962 32.553L255.997 68.772L255.981 68.7785C251.889 68.1963 247.793 67.6424 243.693 67.117L235.811 46.789L227.855 65.23C224.081 64.813 220.303 64.4196 216.524 64.05L230.21 32.335L217.676 0.0065H229.339L236.356 18.0985L244.159 0.006H256ZM122.547 59.763V0.0055H152.641V10.7235H133.327V24.6135H147.941V35.236H133.327V59.761L122.547 59.763ZM82.29 10.724V0.005H115.635V10.7235H104.353V60.0535C100.754 60.1485 97.1595 60.2595 93.5725 60.395V10.724H82.29ZM45.434 63.483V0.007H75.379V10.7245H56.2135V25.2425C60.6165 25.186 66.877 25.1225 70.772 25.1315V35.755C65.8965 35.695 60.393 35.822 56.2135 35.8635V51.9455C62.5973 51.4424 68.9861 51.0057 75.379 50.6355V61.259C65.3857 61.8356 55.4027 62.5773 45.434 63.484M24.2855 38.927L24.285 0.005H35.066V64.485C31.125 64.8903 27.1912 65.321 23.2645 65.777L10.78 29.912V67.313C7.18 67.7817 3.58667 68.271 0 68.781V0.006H10.2455L24.2855 38.927ZM197.712 62.4095V0.006H208.494V63.3C204.905 62.98 201.312 62.6845 197.712 62.4095Z" fill="#DB202C"/>
</svg>
