<svg width="104" height="22" viewBox="0 0 104 22" fill="none" xmlns="http://www.w3.org/2000/svg">
<path d="M43.0767 17.5572H40.3691L37.7203 7.47664L35.0482 17.5572H32.2806L28.642 4.45499H31.0997L33.724 14.8817L36.5871 4.45499H39.0685L41.7645 14.9415L44.2579 4.45499H46.6318L43.0767 17.5572ZM50.1032 5.41042C50.1032 5.75492 49.982 6.03333 49.7392 6.2666L49.7096 6.29426C49.459 6.53315 49.1489 6.65259 48.7793 6.65259C48.4096 6.65259 48.0993 6.53315 47.8485 6.29426C47.5981 6.0555 47.4669 5.76875 47.4669 5.41042C47.4669 5.05208 47.5981 4.75354 47.8487 4.50278C48.111 4.26389 48.4211 4.14445 48.779 4.14445C49.1609 4.14445 49.4709 4.26382 49.7215 4.51458C49.962 4.75557 50.0925 5.04029 50.1026 5.36913L50.1032 5.41042ZM47.6458 17.5572V8.12173H49.8408V17.5572H47.6458ZM60.5176 17.5572H58.3107V12.3018C58.3107 10.9282 57.8811 9.73383 56.4974 9.73383C55.1135 9.73383 54.2427 10.976 54.2427 12.2302V17.557H52.0955V8.12173H54.2427V9.44748H54.2785C54.9943 8.33669 56.0203 7.95456 57.3682 7.95456C58.3822 7.95456 59.1577 8.20531 59.7183 8.85019C60.279 9.49528 60.5176 10.4745 60.5176 11.8003V17.5572ZM69.1066 17.5572V16.339H69.0708C68.391 17.4854 66.9951 17.7484 66.0288 17.7484C63.142 17.7484 62.0803 15.5028 62.0803 13.1142C62.0803 11.5256 62.4739 10.2596 63.2612 9.31611C64.0605 8.36048 65.1223 7.94256 66.4463 7.94256C68.5102 7.94256 69.0708 9.08915 69.0708 9.08915H69.1066V3.63074H71.3375V17.5572H69.1066ZM69.1305 12.1706C69.1305 11.0358 68.4028 9.73423 66.8521 9.73423C65.0865 9.73423 64.3945 11.2748 64.3945 13.0544C64.3945 14.6071 65.0388 16.0045 66.7209 16.0283C68.3505 16.0283 69.0918 14.4831 69.118 13.1893L69.1305 12.1706ZM82.5868 12.7917C82.5868 16.0643 80.6305 17.8318 77.7077 17.8318C74.5227 17.8318 72.8884 15.9209 72.8884 12.9946C72.8884 9.65045 74.8447 7.90676 77.9462 7.90676C80.7737 7.90676 82.5868 9.72203 82.5868 12.7917ZM80.2963 12.8633C80.2963 11.4061 79.7834 9.79382 77.8152 9.79382C75.9302 9.79382 75.1908 11.2032 75.1908 12.9231C75.1908 14.7981 76.0734 15.9805 77.7912 15.9805C79.6335 15.9805 80.2717 14.5874 80.2957 12.9141L80.2963 12.8633ZM94.3969 17.557H91.9752L90.1262 10.7255L88.1339 17.5572H85.7838L83.0401 8.14552H85.3426L87.1321 15.455L89.2314 8.14552H91.3906L93.2634 15.4432L95.0052 8.14552H97.1167L94.3969 17.557ZM104 14.9297C104 17.0319 102.091 17.856 100.183 17.856C98.942 17.856 97.7013 17.378 97.7013 17.378V15.1447L97.7448 15.1809C97.9599 15.3537 98.9517 16.0897 100.278 16.1001C101.304 16.1001 101.769 15.7777 101.769 15.1566C101.792 14.668 101.51 14.3946 101.164 14.1931L101.079 14.1447C100.829 14.0056 100.465 13.827 99.968 13.6279C99.3476 13.3652 98.8823 13.1024 98.5841 12.8515C98.2859 12.6005 98.0592 12.3142 97.916 11.9796C97.7728 11.6453 97.6656 11.275 97.6656 10.833C97.6656 9.13694 99.0852 7.93097 101.34 7.93097C102.831 7.93097 103.475 8.3011 103.475 8.3011V10.4031L103.427 10.3714C103.209 10.2296 102.276 9.66265 101.316 9.66265C100.529 9.66265 99.932 9.9494 99.9202 10.6063C99.9202 11.4421 100.946 11.8602 101.555 12.099C102.426 12.448 103.071 12.8195 103.434 13.2468L103.463 13.2814C103.835 13.7237 103.992 14.1547 104 14.8725L104 14.9297ZM0 0H10.4142V10.4267H0V0ZM11.5594 0H21.9737V10.4267H11.5594V0ZM0 11.5733H10.4142V22H0V11.5733ZM11.5594 11.5733H21.9737V22H11.5594V11.5733Z" fill="#0078D4"/>
</svg>
